<svg width="21" height="17" viewBox="0 0 21 17" fill="none" xmlns="http://www.w3.org/2000/svg">
<path d="M8.14282 7.06278L10.4998 12.3836L13.9936 10.3276V6.19659L8.14282 7.06278Z" fill="#5A5000"/>
<path d="M18.5137 3.10301L16.3324 2.26538L13.9939 2.06549V6.19652V14.9345L17.497 17L20.2884 11.1842L18.5137 5.58734V3.10301Z" fill="#C7B200"/>
<path d="M18.3102 2.06549L17.4968 4.13101V16.962L20.9999 14.8964V2.06549H18.3102Z" fill="#5A5000"/>
<path d="M17.497 0L13.9939 2.06552L17.497 4.13103L21.0001 2.06552L17.497 0Z" fill="#393300"/>
<path d="M10.5 8.26204L6.99693 4.24523L0 2.06549V14.8964L3.50309 16.962L4.50133 9.86115L6.99693 10.3276L10.5 12.3836V8.26204Z" fill="#C7B200"/>
<path d="M3.50309 0L0 2.06552L10.5 8.26206L12.0806 7.32925L13.9939 6.19655L3.50309 0Z" fill="#393300"/>
<path d="M3.50269 8.26202V16.9619L6.99653 14.8964V10.3275L3.50269 8.26202Z" fill="#5A5000"/>
</svg>
