<svg width="54" height="54" viewBox="0 0 54 54" fill="none" xmlns="http://www.w3.org/2000/svg">
<g clip-path="url(#clip0_78_2)">
<path d="M43.26 0H10.74C4.81 0 0 4.81 0 10.74V43.26C0 49.19 4.81 54 10.74 54H43.26C49.19 54 54 49.19 54 43.26V10.74C54 4.81 49.19 0 43.26 0Z" fill="#191A2C"/>
<path d="M28.32 9.06005H25.6901C24.5101 9.06005 23.55 10.02 23.55 11.2V33.94C23.55 35.12 24.5101 36.0801 25.6901 36.0801H28.32C29.5 36.0801 30.4501 35.12 30.4501 33.94V11.19C30.4501 10.01 29.49 9.05005 28.32 9.05005V9.06005ZM28.32 38.03H25.6901C24.5101 38.03 23.55 38.99 23.55 40.17V42.82C23.55 44 24.5101 44.9501 25.6901 44.9501H28.32C29.5 44.9501 30.46 43.99 30.46 42.82V40.17C30.46 38.99 29.5 38.03 28.32 38.03Z" fill="#F9DF00"/>
</g>
<defs>
<clipPath id="clip0_78_2">
<rect width="54" height="54" fill="white"/>
</clipPath>
</defs>
</svg>
