<svg width="54" height="54" viewBox="0 0 54 54" fill="none" xmlns="http://www.w3.org/2000/svg">
<g clip-path="url(#clip0_65_75)">
<path d="M43.26 0H10.74C4.80846 0 0 4.80846 0 10.74V43.26C0 49.1915 4.80846 54 10.74 54H43.26C49.1915 54 54 49.1915 54 43.26V10.74C54 4.80846 49.1915 0 43.26 0Z" fill="#191A2C"/>
<path d="M35.83 27.03L27.06 42.23C26.09 43.91 27.3 46.01 29.24 46.01H44.88C46.82 46.01 48.03 43.91 47.06 42.23L38.29 27.03C37.74 26.08 36.38 26.08 35.83 27.03V27.03Z" fill="#F9DF00"/>
<path d="M25.4399 45.67C24.6499 44.3 24.6499 42.66 25.4399 41.29L29.9399 33.5L22.1299 19.97C21.3799 18.67 19.5099 18.67 18.7599 19.97L6.71993 40.82C5.38993 43.12 7.04993 46 9.70993 46H25.6599C25.5799 45.89 25.5099 45.79 25.4399 45.67Z" fill="#F9DF00"/>
<path d="M10 15C12.7614 15 15 12.7614 15 10C15 7.23858 12.7614 5 10 5C7.23858 5 5 7.23858 5 10C5 12.7614 7.23858 15 10 15Z" fill="#F9DF00"/>
</g>
<defs>
<clipPath id="clip0_65_75">
<rect width="54" height="54" fill="white"/>
</clipPath>
</defs>
</svg>
