<?xml version="1.0" encoding="utf-8"?>
<!-- Generator: Adobe Illustrator 26.5.0, SVG Export Plug-In . SVG Version: 6.00 Build 0)  -->
<svg version="1.1" id="Layer_1" xmlns="http://www.w3.org/2000/svg" xmlns:xlink="http://www.w3.org/1999/xlink" x="0px" y="0px"
	 viewBox="0 0 108 33" style="enable-background:new 0 0 108 33;" xml:space="preserve">
<style type="text/css">
	.st0{fill:#F9DF00;}
	.st1{fill:#FFFFFF;}
</style>
<path class="st0" d="M30.6,15V8.2L16.3,0L2.1,8.2V12h0l1.4-1.2L4.8,12V9.8l11.6-6.7l11.6,6.7V15l-2-1.9v3.3l3.4,3.2l3.4-3.2v-3.3
	L30.6,15z M21,10.5c0-1.3-1-2.2-2.2-2.2c-1.3,0-2.2,1-2.2,2.2c0,1.3,1,2.2,2.2,2.2C20,12.7,21,11.7,21,10.5z M27.9,20.3v1.9
	c-0.1-0.1-0.2-0.2-0.3-0.3c-1.7-1.7-3.4-3.4-5.1-5c-0.6-0.6-1.2-0.6-1.9,0c-0.6,0.6-1.2,1.2-1.8,1.9c-0.3,0.3-0.5,0.3-0.8,0
	c-1.3-1.4-2.7-2.7-4-4c-0.6-0.6-1.2-0.6-1.7-0.1c-2.5,2.4-4.9,4.9-7.4,7.3c-0.1,0.1-0.1,0.1-0.2,0.2v-5l2.1,1.9v-3.3l-3.4-3.2
	L0,15.8v3.3l2.1-1.9v7.5L16.3,33l14.3-8.2v-4.4l-1.3,1.2L27.9,20.3z M3.4,16.1L3.4,16.1h0.1H3.4z"/>
<g>
	<path class="st1" d="M41.3,25.7V9h4l4.3,12.9c0-0.6-0.1-1.2-0.2-2c-0.1-0.7-0.1-1.5-0.1-2.2c0-0.7-0.1-1.4-0.1-1.9V9h3v16.7h-4
		L44,12.8c0,0.5,0.1,1.1,0.1,1.7c0,0.7,0.1,1.3,0.1,2c0,0.7,0.1,1.3,0.1,1.8v7.3H41.3z"/>
	<path class="st1" d="M55.2,25.7V9h10.7v3.2h-7.4v3.7h6.8v3.2h-6.7v6.6H55.2z"/>
	<path class="st1" d="M72.5,25.7V12.2h-4.2V9h11.9v3.2h-4.2v13.5H72.5z"/>
	<path class="st1" d="M82.8,25.7V9h10.3v2.9h-6.9v3.7h6.1v2.9h-6.1v4.2h6.9v2.9H82.8z"/>
	<path class="st1" d="M95.2,25.7l4.5-8.6L95.5,9h3.8l1.7,3.7c0.2,0.3,0.3,0.6,0.4,0.9c0.1,0.3,0.2,0.5,0.2,0.6
		c0-0.1,0.1-0.3,0.2-0.6c0.1-0.3,0.2-0.6,0.4-0.9L104,9h3.7l-4.2,8.1l4.5,8.6h-3.8l-2-4.1c-0.2-0.3-0.3-0.6-0.4-0.9
		c-0.1-0.3-0.2-0.5-0.3-0.7c0,0.2-0.1,0.4-0.2,0.7c-0.1,0.3-0.2,0.6-0.4,0.9l-2,4.1H95.2z"/>
</g>
</svg>
