<?xml version="1.0" encoding="utf-8"?>
<!-- Generator: Adobe Illustrator 26.5.0, SVG Export Plug-In . SVG Version: 6.00 Build 0)  -->
<svg version="1.1" id="Layer_1" xmlns="http://www.w3.org/2000/svg" xmlns:xlink="http://www.w3.org/1999/xlink" x="0px" y="0px"
	 viewBox="0 0 108 33" style="enable-background:new 0 0 108 33;" xml:space="preserve">
<style type="text/css">
	.st0{fill:#F9DF00;}
	.st1{fill:#03041A;}
</style>
<g>
	<polygon points="8.9,7.4 4.3,10.1 4.3,22.5 15.8,29.5 27.7,23 27.7,9.4 16.6,3 	"/>
</g>
<g>
	<path class="st0" d="M29.3,15.1V8.9L16.2,1.4L3.1,8.9v3.4h0l1.2-1.1l1.2,1.1v-2l10.6-6.1l10.6,6.1v4.7l-1.9-1.7v3l3.1,2.9l3.1-2.9
		v-3L29.3,15.1z M20.4,11c0-1.1-0.9-2-2-2c-1.1,0-2,0.9-2,2c0,1.1,0.9,2,2,2C19.5,13,20.4,12.1,20.4,11z M26.8,20v1.8
		c-0.1-0.1-0.1-0.2-0.2-0.3c-1.6-1.5-3.1-3.1-4.6-4.6c-0.6-0.6-1.1-0.6-1.7,0c-0.6,0.6-1.1,1.1-1.7,1.7c-0.3,0.3-0.4,0.3-0.7,0
		c-1.2-1.2-2.5-2.5-3.7-3.7c-0.5-0.5-1.1-0.5-1.6-0.1c-2.3,2.2-4.5,4.5-6.7,6.7c-0.1,0.1-0.1,0.1-0.2,0.2v-4.6l1.9,1.8v-3L4.3,13
		l-3.1,2.9v3l1.9-1.7v6.9l13.1,7.6l13.1-7.6v-4L28,21.2L26.8,20z M4.3,16.1L4.3,16.1h0.1H4.3z"/>
	<path d="M16.2,1.4l13.1,7.6v6.2l1.9-1.8v3L28,19.3l-3.1-2.9v-3l1.9,1.7v-4.7L16.2,4.2L5.6,10.4v2l-1.2-1.1l-1.2,1.1h0V8.9L16.2,1.4
		 M18.4,9C18.4,9,18.4,9,18.4,9c1.1,0,2,0.9,2,2c0,1.1-0.9,2-2,2c0,0,0,0,0,0c-1.1,0-2-0.9-2-2C16.4,9.8,17.3,9,18.4,9 M4.3,13
		l3.1,2.9v3l-1.9-1.8v4.6c0-0.1,0.1-0.1,0.2-0.2c2.2-2.2,4.5-4.5,6.7-6.7c0.2-0.2,0.5-0.4,0.8-0.4c0.3,0,0.6,0.1,0.8,0.4
		c1.2,1.2,2.5,2.5,3.7,3.7c0.1,0.1,0.3,0.2,0.4,0.2c0.1,0,0.2-0.1,0.4-0.2c0.5-0.6,1.1-1.1,1.7-1.7c0.3-0.3,0.6-0.5,0.9-0.5
		c0.3,0,0.6,0.1,0.9,0.4c1.5,1.5,3.1,3.1,4.6,4.6c0.1,0.1,0.2,0.2,0.2,0.3V20l1.2,1.1l1.2-1.1v4l-13.1,7.6L3.1,24.1v-6.9l-1.9,1.7
		v-3L4.3,13 M4.3,16.1h0.1H4.3L4.3,16.1 M16.2,0l-0.6,0.3L2.5,7.9L1.9,8.2v0.7v3.4v1.2H2L0.4,15L0,15.4v0.5v3v2.7l1.9-1.7v4.2v0.7
		l0.6,0.3l13.1,7.6l0.6,0.3l0.6-0.3l13.1-7.6l0.6-0.3v-0.7v-4v-1.4l1.5-1.4l0.4-0.4v-0.5v-3v-2.7l-1.9,1.8V8.9V8.2l-0.6-0.3
		L16.8,0.3L16.2,0L16.2,0z M6.7,11.1l9.4-5.4l9.4,5.4v1.3l-1.9-1.7v2.7v3v0.5l0.4,0.4l1.5,1.4v0.2c-0.3-0.3-0.6-0.6-0.9-0.9
		c-0.6-0.6-1.3-1.3-1.9-1.9c-0.5-0.5-1.1-0.8-1.7-0.8c-0.6,0-1.2,0.3-1.7,0.8l-0.3,0.3c-0.3,0.3-0.6,0.6-0.9,0.9
		C17,16.2,16,15.1,14.9,14c-0.6-0.6-1.3-0.8-1.7-0.8c-0.4,0-1,0.1-1.6,0.7c-1,1-2,2-3,3v-1.1v-0.5L8.3,15l-1.5-1.4v-1.3V11.1
		L6.7,11.1z M18.4,7.8c-1.8,0-3.2,1.4-3.2,3.2c0,1.8,1.4,3.2,3.2,3.2c1.8,0,3.2-1.4,3.2-3.2c0-0.9-0.3-1.7-0.9-2.3
		C20.1,8.1,19.3,7.8,18.4,7.8L18.4,7.8L18.4,7.8L18.4,7.8z"/>
</g>
<g>
	<path class="st1" d="M41.3,25.7V9h4l4.3,12.9c0-0.6-0.1-1.2-0.2-2c-0.1-0.7-0.1-1.5-0.1-2.2c0-0.7-0.1-1.4-0.1-1.9V9h3v16.7h-4
		L44,12.8c0,0.5,0.1,1.1,0.1,1.7c0,0.7,0.1,1.3,0.1,2c0,0.7,0.1,1.3,0.1,1.8v7.3H41.3z"/>
	<path class="st1" d="M55.2,25.7V9h10.7v3.2h-7.4v3.7h6.8v3.2h-6.7v6.6H55.2z"/>
	<path class="st1" d="M72.5,25.7V12.2h-4.2V9h11.9v3.2h-4.2v13.5H72.5z"/>
	<path class="st1" d="M82.8,25.7V9h10.3v2.9h-6.9v3.7h6.1v2.9h-6.1v4.2h6.9v2.9H82.8z"/>
	<path class="st1" d="M95.2,25.7l4.5-8.6L95.5,9h3.8l1.7,3.7c0.2,0.3,0.3,0.6,0.4,0.9c0.1,0.3,0.2,0.5,0.2,0.6
		c0-0.1,0.1-0.3,0.2-0.6c0.1-0.3,0.2-0.6,0.4-0.9L104,9h3.7l-4.2,8.1l4.5,8.6h-3.8l-2-4.1c-0.2-0.3-0.3-0.6-0.4-0.9
		c-0.1-0.3-0.2-0.5-0.3-0.7c0,0.2-0.1,0.4-0.2,0.7c-0.1,0.3-0.2,0.6-0.4,0.9l-2,4.1H95.2z"/>
</g>
</svg>
