<svg width="72" height="75" viewBox="0 0 72 75" fill="none" xmlns="http://www.w3.org/2000/svg">
<g clip-path="url(#clip0_30_37)">
<path d="M43.3001 1.9432C48.9804 -2.41912 57.2751 0.97598 58.2291 8.05438L61.5627 32.772L64.8964 57.4896C65.8504 64.568 58.7511 70.022 52.1145 67.3037L28.9457 57.8193L5.77693 48.3327C-0.857444 45.6166 -2.05054 36.7675 3.62981 32.4052L23.465 17.1742L43.3001 1.9432Z" fill="white"/>
<path d="M62.6921 73.2534C61.7118 73.2534 60.738 73.059 59.7993 72.6726L13.4618 53.7037C10.933 52.6688 9.20478 50.4396 8.84072 47.741C8.47665 45.0424 9.5535 42.4398 11.7182 40.7761L51.3885 10.312C52.7329 9.27923 54.3186 8.7334 55.9744 8.7334C59.2795 8.7334 62.9268 10.9801 63.5058 15.2725L70.1731 64.7056C70.467 66.8933 69.8353 69.0024 68.3922 70.6443C66.9359 72.3014 64.8568 73.2534 62.6921 73.2534V73.2534Z" fill="#0D0C16"/>
<path d="M55.9766 10.48C58.5185 10.48 61.3236 12.2071 61.7688 15.5061L65.1024 40.2237L68.436 64.9413C68.6619 66.6225 68.1794 68.2404 67.0741 69.498C65.9512 70.7774 64.3545 71.5088 62.6943 71.5088C61.9442 71.5088 61.1942 71.3582 60.4682 71.0612L37.2994 61.5768L14.1306 52.0923C12.1875 51.2976 10.8606 49.5859 10.5821 47.5117C10.3035 45.4397 11.1282 43.4398 12.7928 42.1625L32.6279 26.9315L52.4609 11.694C53.4961 10.8992 54.7111 10.48 55.9766 10.48ZM55.9766 6.98668C54.0356 6.98668 52.0552 7.59583 50.3182 8.92986L30.483 24.1609L10.6479 39.3918C4.96753 43.7542 6.16062 52.6033 12.795 55.3193L35.9638 64.8038L59.1326 74.2882C60.3213 74.7751 61.5231 75 62.6943 75C68.0522 75 72.6974 70.284 71.9144 64.4741L68.5808 39.7565L65.2472 15.0388C64.5848 10.1241 60.3849 6.9845 55.9766 6.9845V6.98668Z" fill="white"/>
<path d="M58.2904 46.3611C58.2839 45.1384 58.2861 43.9179 58.2904 42.6953C58.2926 41.7324 57.8058 40.9966 56.9153 40.6189C56.9219 40.1211 56.9197 39.6255 56.9197 39.1277V38.6037C56.9175 36.7806 56.1258 35.6976 54.4173 35.2042C54.4173 35.0841 54.4173 34.964 54.4129 34.8461C54.4085 34.6191 54.4041 34.4073 54.4217 34.2042C54.4787 33.5623 54.2703 32.9554 53.8383 32.499C53.3755 32.0122 52.6978 31.7414 51.9938 31.7633C51.2503 31.7829 50.4893 31.7807 49.7546 31.7764C49.2194 31.7742 48.6843 31.772 48.1492 31.7764C48.011 31.3331 47.8531 30.903 47.6754 30.4969C47.1666 29.331 45.9691 28.8179 44.7629 29.2524C44.4493 29.366 44.1356 29.4795 43.822 29.593C43.5764 29.6825 43.3307 29.7721 43.0829 29.8616L41.4885 30.438C39.9467 30.9969 38.4027 31.5537 36.8587 32.106C35.9068 32.4466 35.3541 33.0907 35.216 34.0252C35.1458 34.5012 35.2708 34.9073 35.409 35.2697C34.1413 35.6649 33.2114 36.9771 33.2267 38.4356C33.2706 42.6647 33.2706 46.813 33.2267 50.7671C33.218 51.647 33.5623 52.4766 34.1961 53.1054C34.8102 53.7124 35.6436 54.0574 36.4902 54.0574C36.5078 54.0574 36.5253 54.0574 36.5428 54.0574C38.5364 54.0224 40.5673 54.0312 42.5324 54.0377C43.3636 54.0399 44.1927 54.0443 45.0239 54.0443H45.0348C45.8661 54.0443 46.6973 54.0399 47.5263 54.0377C49.498 54.029 51.5376 54.0203 53.5378 54.0617C53.5597 54.0617 53.5839 54.0617 53.6058 54.0617C54.5028 54.0617 55.3669 53.7124 55.9854 53.0945C56.6105 52.4701 56.9438 51.6098 56.9241 50.6732C56.9153 50.2758 56.9175 49.8675 56.9197 49.4745C56.9197 49.1339 56.9241 48.7933 56.9197 48.4549C57.8123 48.0706 58.3014 47.3305 58.297 46.3655L58.2904 46.3611ZM51.7855 34.3898C51.7811 34.6191 51.7789 34.8592 51.7855 35.1081C51.1363 35.1016 50.4871 35.1038 49.8379 35.1038H49.0264H48.204C47.5811 35.1038 46.9385 35.1016 46.3003 35.1081C46.3091 34.8636 46.3047 34.6234 46.3003 34.3876C48.1228 34.3898 49.9454 34.392 51.7877 34.3876L51.7855 34.3898ZM45.3551 31.8353C45.3507 31.8353 45.3463 31.8353 45.3397 31.8375C45.3441 31.8375 45.3485 31.8353 45.3529 31.8331L45.3551 31.8353ZM44.9405 31.986C44.1707 32.3506 43.6817 33.0842 43.6663 33.9357L43.6619 34.1169C43.6553 34.4422 43.6488 34.7741 43.6619 35.1103C43.0259 35.1016 42.3833 35.1038 41.7604 35.106C41.4929 35.106 41.2253 35.106 40.9577 35.106H40.2033C39.5256 35.1038 38.8501 35.1016 38.1746 35.1103C38.1088 34.9029 38.032 34.7042 37.9531 34.5121C40.2822 33.6715 42.6136 32.8309 44.9405 31.986V31.986ZM54.2506 49.6601C54.2506 50.0728 54.2506 50.4876 54.2462 50.9003C54.244 51.1513 54.0883 51.3347 53.8427 51.3806C53.6694 51.4133 53.472 51.4177 53.3207 51.4177C51.0902 51.4199 48.8598 51.4199 46.6315 51.4177H45.0568H42.4008C40.5191 51.4177 38.6373 51.4177 36.7556 51.4177C35.9682 51.4177 35.8695 51.3173 35.8695 50.5225V38.5884C35.8695 37.8701 36.0121 37.726 36.7227 37.726H49.2326H53.4282C53.597 37.726 53.7418 37.726 53.8536 37.7609C53.9721 37.798 54.2462 37.9203 54.2506 38.2543C54.255 38.6277 54.255 39.0032 54.2528 39.3788C54.2528 39.7346 54.2528 40.0883 54.255 40.4442C53.6277 40.4355 52.9654 40.4355 52.2329 40.4464C50.0134 40.477 48.2084 42.3132 48.2106 44.5402C48.2128 46.7628 50.0221 48.5968 52.2438 48.6252C52.9171 48.634 53.5926 48.634 54.2528 48.6252C54.2506 48.9702 54.2528 49.3152 54.2528 49.6601H54.2506ZM55.6586 45.9965C55.3121 45.9965 54.9656 46.003 54.6278 46.0074C53.7747 46.0227 52.9676 46.0358 52.1583 45.9572C51.3929 45.8808 50.8095 45.2301 50.8577 44.5074C50.9126 43.6712 51.5135 43.0926 52.3513 43.0686C52.564 43.0621 52.779 43.0599 52.9939 43.0599C53.1737 43.0599 53.3558 43.0599 53.5334 43.0621C53.7177 43.0621 53.8997 43.0642 54.0839 43.0642H54.5138C54.5379 43.0642 54.5598 43.0642 54.584 43.0642C54.9371 43.0642 55.2989 43.0686 55.6608 43.0621C55.652 44.0555 55.6542 45.0533 55.6608 45.9965H55.6586Z" fill="#F9DF00"/>
</g>
<defs>
<clipPath id="clip0_30_37">
<rect width="72" height="75" fill="white"/>
</clipPath>
</defs>
</svg>
