<svg width="86" height="76" viewBox="0 0 86 76" fill="none" xmlns="http://www.w3.org/2000/svg">
<g clip-path="url(#clip0_128_401)">
<path d="M83.1515 31.1747L54.5874 2.82623C50.7892 -0.943253 44.6312 -0.943252 40.833 2.82623L12.2689 31.1747C8.47075 34.9442 8.47075 41.0557 12.2689 44.8252L40.833 73.1737C44.6312 76.9432 50.7892 76.9432 54.5874 73.1737L83.1515 44.8252C86.9497 41.0557 86.9497 34.9442 83.1515 31.1747Z" fill="#0D0C16"/>
<path d="M38.289 74.3472C36.1365 74.3472 34.111 73.5146 32.5893 72.0044L4.026 43.6567C0.882608 40.5371 0.882608 35.4609 4.026 32.3433L32.5893 3.99568C34.111 2.48543 36.1365 1.65283 38.289 1.65283C40.4415 1.65283 42.467 2.48543 43.9888 3.99568L72.552 32.3433C75.6954 35.463 75.6954 40.5391 72.552 43.6567L43.9888 72.0044C42.467 73.5146 40.4415 74.3472 38.289 74.3472V74.3472Z" fill="#F9DF00"/>
<path d="M38.289 3.30561C39.9981 3.30561 41.6031 3.96673 42.8105 5.16501L71.3738 33.5126C72.5812 34.7109 73.2474 36.3059 73.2474 38C73.2474 39.6941 72.5812 41.2891 71.3738 42.4874L42.8105 70.835C41.6031 72.0333 39.9961 72.6944 38.289 72.6944C36.582 72.6944 34.9749 72.0333 33.7675 70.835L5.20427 42.4894C2.71037 40.0144 2.71037 35.9877 5.20427 33.5126L33.7675 5.16501C34.9749 3.96673 36.582 3.30561 38.289 3.30561ZM38.289 0C35.7993 0 33.3117 0.942098 31.411 2.82629L2.84777 31.1739C-0.951371 34.9444 -0.951371 41.0556 2.84777 44.8261L31.411 73.1737C33.3096 75.0579 35.7993 76 38.289 76C40.7788 76 43.2685 75.0579 45.167 73.1737L73.7303 44.8261C77.5295 41.0556 77.5295 34.9444 73.7303 31.1739L45.167 2.82629C43.2685 0.942098 40.7788 0 38.289 0Z" fill="#0D0C16"/>
<path d="M50.336 28.765H31.9148C30.9824 28.765 30.2266 29.5147 30.2266 30.4395C30.2266 31.3643 30.9824 32.114 31.9148 32.114H50.336C51.2684 32.114 52.0243 31.3643 52.0243 30.4395C52.0243 29.5147 51.2684 28.765 50.336 28.765Z" fill="#0D0C16"/>
<path d="M50.336 36.3265H31.9148C30.9824 36.3265 30.2266 37.0762 30.2266 38.001C30.2266 38.9258 30.9824 39.6755 31.9148 39.6755H50.336C51.2684 39.6755 52.0243 38.9258 52.0243 38.001C52.0243 37.0762 51.2684 36.3265 50.336 36.3265Z" fill="#0D0C16"/>
<path d="M50.336 43.8861H31.9148C30.9824 43.8861 30.2266 44.6358 30.2266 45.5606C30.2266 46.4854 30.9824 47.2351 31.9148 47.2351H50.336C51.2684 47.2351 52.0243 46.4854 52.0243 45.5606C52.0243 44.6358 51.2684 43.8861 50.336 43.8861Z" fill="#0D0C16"/>
<path d="M26.2796 28.765H26.2442C25.3118 28.765 24.5559 29.5147 24.5559 30.4395C24.5559 31.3643 25.3118 32.114 26.2442 32.114H26.2796C27.212 32.114 27.9678 31.3643 27.9678 30.4395C27.9678 29.5147 27.212 28.765 26.2796 28.765Z" fill="#0D0C16"/>
<path d="M26.2796 36.3265H26.2442C25.3118 36.3265 24.5559 37.0762 24.5559 38.001C24.5559 38.9258 25.3118 39.6755 26.2442 39.6755H26.2796C27.212 39.6755 27.9678 38.9258 27.9678 38.001C27.9678 37.0762 27.212 36.3265 26.2796 36.3265Z" fill="#0D0C16"/>
<path d="M26.2796 43.8861H26.2442C25.3118 43.8861 24.5559 44.6358 24.5559 45.5606C24.5559 46.4854 25.3118 47.2351 26.2442 47.2351H26.2796C27.212 47.2351 27.9678 46.4854 27.9678 45.5606C27.9678 44.6358 27.212 43.8861 26.2796 43.8861Z" fill="#0D0C16"/>
</g>
<defs>
<clipPath id="clip0_128_401">
<rect width="86" height="76" fill="white"/>
</clipPath>
</defs>
</svg>
