<svg width="75" height="75" viewBox="0 0 75 75" fill="none" xmlns="http://www.w3.org/2000/svg">
<g clip-path="url(#clip0_29_20)">
<path d="M64.0325 0H18.4794C12.4223 0 7.51196 4.91031 7.51196 10.9675V56.5205C7.51196 62.5777 12.4223 67.488 18.4794 67.488H64.0325C70.0897 67.488 75 62.5777 75 56.5205V10.9675C75 4.91031 70.0897 0 64.0325 0Z" fill="white"/>
<path d="M10.9675 9.39001H56.5206C61.5372 9.39001 65.6101 13.4629 65.6101 18.4795V64.0302C65.6101 69.0468 61.5372 73.1197 56.5206 73.1197H10.9675C5.95095 73.1197 1.87805 69.0468 1.87805 64.0302V18.4795C1.87805 13.4629 5.95095 9.39001 10.9675 9.39001Z" fill="#0D0C16"/>
<path d="M56.5206 11.2679C60.4972 11.2679 63.732 14.5028 63.732 18.4794V64.0302C63.732 68.0068 60.4972 71.2417 56.5206 71.2417H10.9675C6.99083 71.2417 3.75599 68.0068 3.75599 64.0302V18.4794C3.75599 14.5028 6.99083 11.2679 10.9675 11.2679H56.5206ZM56.5206 7.51196H10.9675C4.91095 7.51196 0 12.4229 0 18.4794V64.0302C0 70.0867 4.91095 74.9977 10.9675 74.9977H56.5206C62.5771 74.9977 67.488 70.0867 67.488 64.0302V18.4794C67.488 12.4229 62.5771 7.51196 56.5206 7.51196Z" fill="white"/>
<path d="M35.6467 27.4563C35.6467 26.4049 34.7949 25.5525 33.7441 25.5525C32.6933 25.5525 31.8414 26.4049 31.8414 27.4563V55.2952C31.8414 56.3467 32.6933 57.199 33.7441 57.199C34.7949 57.199 35.6467 56.3467 35.6467 55.2952V27.4563Z" fill="#F9DF00"/>
<path d="M47.6635 39.4731H19.8246C18.7731 39.4731 17.9208 40.325 17.9208 41.3758C17.9208 42.4266 18.7731 43.2784 19.8246 43.2784H47.6635C48.7149 43.2784 49.5673 42.4266 49.5673 41.3758C49.5673 40.325 48.7149 39.4731 47.6635 39.4731Z" fill="#F9DF00"/>
</g>
<defs>
<clipPath id="clip0_29_20">
<rect width="75" height="75" fill="white"/>
</clipPath>
</defs>
</svg>
