<svg width="75" height="75" viewBox="0 0 75 75" fill="none" xmlns="http://www.w3.org/2000/svg">
<g clip-path="url(#clip0_30_29)">
<path d="M33.7428 75H33.7452C52.3809 75 67.488 59.8928 67.488 41.2572V41.2548C67.488 22.6192 52.3809 7.51197 33.7452 7.51197H33.7428C15.1072 7.51197 7.62939e-06 22.6192 7.62939e-06 41.2548V41.2572C7.62939e-06 59.8928 15.1072 75 33.7428 75Z" fill="white"/>
<path d="M63.7859 56.2753C76.2299 43.8313 76.2299 23.6556 63.7859 11.2116C51.3419 -1.23244 31.1662 -1.23244 18.7222 11.2116C6.27816 23.6556 6.27816 43.8313 18.7222 56.2753C31.1662 68.7193 51.3419 68.7193 63.7859 56.2753Z" fill="#0D0C16"/>
<path d="M41.2548 3.75599C49.2644 3.75599 56.7952 6.8758 62.4597 12.5403C68.1242 18.2048 71.244 25.7355 71.244 33.7452C71.244 41.7548 68.1242 49.2856 62.4597 54.9501C56.7952 60.6146 49.2644 63.7344 41.2548 63.7344C33.2452 63.7344 25.7144 60.6146 20.0499 54.9501C14.3854 49.2856 11.2656 41.7548 11.2656 33.7452C11.2656 25.7355 14.3854 18.2048 20.0499 12.5403C25.7144 6.8758 33.2452 3.75599 41.2548 3.75599ZM41.2548 0C22.6204 0 7.51196 15.1085 7.51196 33.7428C7.51196 52.3796 22.6204 67.4857 41.2548 67.4857C59.8915 67.4857 74.9976 52.3772 74.9976 33.7428C75 15.1085 59.8915 0 41.2548 0Z" fill="white"/>
<path d="M63.4363 28.7263C61.6944 21.4772 57.3962 16.1742 50.6565 12.9675C47.8982 11.6553 44.938 10.9557 41.8605 10.8877C40.8393 10.8665 40.2712 11.4182 40.2384 12.4464C40.2219 12.9793 40.351 13.3831 40.6374 13.6859C41.0224 14.0943 41.5529 14.1577 41.9708 14.1671C46.9921 14.2845 51.3913 16.2024 55.044 19.8668C58.915 23.7519 60.7273 28.3906 60.746 34.4612V34.494C60.7953 35.6302 60.4925 37.4777 59.9784 39.2031C58.645 43.668 55.9971 47.2996 52.1002 49.9992C51.9453 49.7011 51.7763 49.417 51.6143 49.1377C51.5251 48.9851 51.4359 48.8349 51.349 48.6799C51.0251 48.1071 50.6143 47.9968 50.3232 48.0086C50.0344 48.0179 49.6283 48.1518 49.3419 48.741L48.5649 50.3396C48.079 51.3373 47.593 52.3373 47.1071 53.335C46.8371 53.889 46.9451 54.2857 47.0836 54.5205C47.2221 54.7576 47.5179 55.0463 48.1377 55.0815C49.7621 55.1754 51.3866 55.274 53.0087 55.3773C53.058 55.3797 53.1261 55.3844 53.2082 55.3844C53.5322 55.3844 54.0604 55.3163 54.3327 54.8257C54.558 54.4219 54.4876 53.9571 54.1214 53.4406C54.0862 53.3913 54.0604 53.3374 54.0299 53.2857C53.997 53.227 53.9665 53.1707 53.9313 53.1143L53.8773 53.0251C53.8233 52.9359 53.7693 52.8467 53.72 52.7646C53.8303 52.6941 53.9547 52.6143 54.1003 52.5157C61.7179 47.3348 65.556 37.5528 63.4363 28.7263V28.7263ZM40.4097 53.2763C39.7947 53.2951 39.1303 53.2482 38.3768 53.1355C33.1583 52.3491 28.9281 49.9241 25.806 45.931C21.6227 40.5811 20.4678 34.5504 22.3786 28.0103C23.7496 23.3176 26.6464 19.5898 30.9892 16.9254C31.1043 16.855 31.2639 16.7564 31.4 16.6789C31.4611 16.8104 31.5315 16.9677 31.5996 17.1179L31.6536 17.2376C31.7193 17.3855 31.785 17.5311 31.8437 17.6837C32.0879 18.3198 32.4846 18.4935 32.7733 18.5264C33.0644 18.5616 33.4917 18.4818 33.879 17.9184C34.6912 16.7376 35.6114 15.3995 36.534 14.0826C36.8533 13.6295 36.9331 13.2023 36.7711 12.815C36.527 12.2281 35.8908 12.1154 35.6819 12.0802C35.1819 11.9933 34.6818 11.8971 34.1818 11.8008C33.4494 11.66 32.6912 11.5168 31.9353 11.3971C31.8719 11.3877 31.7592 11.3501 31.6606 11.3196C31.2568 11.1905 30.4164 10.9229 29.8577 11.6271C29.2709 12.3666 29.7779 13.153 30.0221 13.5309C30.0667 13.599 30.1089 13.6648 30.1371 13.7164C30.1324 13.7164 30.1301 13.7211 30.1254 13.7234C28.2356 14.7235 26.5173 16.0029 25.0219 17.5264C20.6133 22.0148 18.3691 27.4422 18.3503 33.6607V34.1748C18.3503 34.6607 18.3503 35.149 18.3503 35.6349C18.3503 35.7781 18.3621 35.9307 18.3832 36.0997C19.2588 42.8981 22.4138 48.3231 27.7591 52.2246C31.4611 54.9266 35.7124 56.3821 40.3909 56.5511C40.4308 56.5511 40.4708 56.5534 40.5154 56.5534C40.8557 56.5534 41.2971 56.4947 41.6422 56.1614C41.9239 55.8891 42.067 55.5017 42.067 55.0111C42.067 54.6285 42.0201 54.0768 41.6116 53.6801C41.3205 53.3984 40.9215 53.2622 40.4097 53.2763V53.2763Z" fill="#F9DF00"/>
<path d="M40.2689 42.0764C40.1797 41.9943 40.1374 41.8839 40.1374 41.7478V40.4285C39.2336 40.3393 38.4566 40.121 37.8111 39.7688C37.1632 39.4167 36.6749 38.9871 36.3415 38.4777C36.0082 37.9683 35.8298 37.426 35.804 36.8486C35.804 36.7476 35.8439 36.6561 35.926 36.5762C36.0082 36.4941 36.1044 36.4542 36.2171 36.4542H37.912C38.0622 36.4542 38.1796 36.4823 38.2594 36.5387C38.3416 36.595 38.4191 36.6866 38.4942 36.811C38.6327 37.2382 38.9238 37.5951 39.3698 37.8838C39.8158 38.1725 40.4285 38.3181 41.2079 38.3181C42.0741 38.3181 42.7314 38.1702 43.1774 37.8744C43.6234 37.5786 43.8465 37.1749 43.8465 36.6584C43.8465 36.3204 43.7338 36.0363 43.5084 35.811C43.2831 35.5856 42.9403 35.3861 42.4826 35.217C42.0248 35.048 41.3487 34.8438 40.4567 34.6043C38.9754 34.2522 37.8885 33.7874 37.196 33.2099C36.5059 32.6325 36.1608 31.8038 36.1608 30.7239C36.1608 29.745 36.5152 28.914 37.2265 28.238C37.9355 27.5595 38.9073 27.144 40.1374 26.9938V25.6933C40.1374 25.5548 40.182 25.4444 40.2689 25.3646C40.3557 25.2825 40.4637 25.2426 40.5881 25.2426H41.7572C41.8957 25.2426 42.006 25.2825 42.0882 25.3646C42.1703 25.4468 42.2103 25.5571 42.2103 25.6933V27.0313C43.0272 27.144 43.7267 27.3858 44.3113 27.7567C44.8958 28.1276 45.3418 28.5572 45.6493 29.0478C45.9569 29.5385 46.1235 30.015 46.1493 30.4798C46.1493 30.5925 46.1118 30.6864 46.0367 30.7615C45.9615 30.8366 45.8677 30.8742 45.755 30.8742H43.9662C43.7033 30.8742 43.5202 30.7615 43.4192 30.5361C43.3441 30.1347 43.0953 29.799 42.6751 29.5291C42.2549 29.2591 41.729 29.123 41.1022 29.123C40.4121 29.123 39.8675 29.2544 39.4731 29.5197C39.0787 29.7849 38.8792 30.1676 38.8792 30.67C38.8792 31.008 38.9754 31.292 39.1703 31.5174C39.3651 31.7428 39.6797 31.9446 40.1116 32.1207C40.5459 32.2968 41.1633 32.4846 41.9685 32.6864C43.0859 32.9376 43.9756 33.2193 44.6352 33.5339C45.2949 33.8485 45.7808 34.2428 46.0954 34.7217C46.4099 35.1983 46.5672 35.8086 46.5672 36.5504C46.5672 37.642 46.1752 38.5294 45.3888 39.2078C44.6047 39.8862 43.546 40.2947 42.215 40.4332V41.7525C42.215 41.891 42.175 42.0013 42.0929 42.0811C42.0107 42.1633 41.9004 42.2032 41.7619 42.2032H40.5928C40.4661 42.2032 40.3604 42.1633 40.2736 42.0811L40.2689 42.0764Z" fill="#F9DF00"/>
</g>
<defs>
<clipPath id="clip0_30_29">
<rect width="75" height="75" fill="white"/>
</clipPath>
</defs>
</svg>
